<?xml version="1.0" encoding="UTF-8"?>
<svg width="100px" height="108px" viewBox="0 0 100 108" version="1.1" xmlns="http://www.w3.org/2000/svg" xmlns:xlink="http://www.w3.org/1999/xlink">
    <!-- Generator: Sketch 49.3 (51167) - http://www.bohemiancoding.com/sketch -->
    <title>Logo</title>
    <desc>Created with Sketch.</desc>
    <defs>
        <linearGradient x1="100%" y1="50%" x2="0%" y2="50%" id="linearGradient-1">
            <stop stop-color="#FEE140" offset="0%"></stop>
            <stop stop-color="#FA709A" offset="100%"></stop>
        </linearGradient>
        <linearGradient x1="-2.23794939%" y1="-137.303355%" x2="71.1057088%" y2="-137.303352%" id="linearGradient-2">
            <stop stop-color="#FF6406" offset="0%"></stop>
            <stop stop-color="#FF435E" offset="100%"></stop>
        </linearGradient>
    </defs>
    <g id="Page-1" stroke="none" stroke-width="1" fill="none" fill-rule="evenodd">
        <g id="Iniciar-Sesion" transform="translate(-138.000000, -16.000000)" fill="url(#linearGradient-2)" fill-rule="nonzero">
            <g id="Logo" transform="translate(138.000000, 16.000000)">
                <g id="covered-food-tray-on-a-hand-of-hotel-room-service" transform="translate(0.000000, 79.302231)">
                    <path d="M93.4013611,2.18462875 C87.6415948,3.91718398 67.5584351,8.40205527 67.5584351,8.40205527 L43.8185955,7.48115604 C43.8185955,7.48115604 57.3977731,5.14269016 62.6617764,4.41078409 C67.9349253,3.68147342 65.6413075,0 62.725795,0 C59.8106636,0 34.4036736,0.649560746 34.4036736,0.649560746 L17.5328744,4.41078409 L21.9977888,21.9090493 C21.9977888,21.9090493 25.4711774,18.2273399 28.9358016,18.2273399 C32.4133819,18.2273399 62.5356446,18.7235354 66.6244499,18.2273399 C70.7155415,17.7254817 95.6332467,7.17112232 98.6173505,5.94018937 C101.588117,4.71491914 99.18361,0.449478104 93.4013611,2.18462875 Z" id="Shape"></path>
                    <polygon id="Shape" points="0 6.11363337 0 28.6977688 20.8945744 25.7142093 15.6673883 4.01151606"></polygon>
                </g>
                <g id="dinner" transform="translate(35.269777, 16.649087)">
                    <path d="M27.6975556,22.9652621 L27.6975556,0.504895502 C27.6975556,0.288191503 27.4746961,0.0955778383 27.1434801,0.0263590057 C26.8126153,-0.0427508209 26.447505,0.027122048 26.2362363,0.199787608 C21.7214426,3.89541923 19.2778905,8.40608899 19.2778905,13.0439688 L19.2778905,21.2606257 C19.2778905,22.2029829 20.5086231,22.9670062 22.0270184,22.9670062 L23.173103,22.9670062 C22.0433509,30.2096942 21.2967977,40.3392981 21.2967977,41.5253928 C21.2967977,43.3939742 23.1497458,44.9087221 25.4354171,44.9087221 C27.7210885,44.9087221 29.5740365,43.3938652 29.5740365,41.5253928 C29.5740365,40.3391891 28.8274834,30.2079501 27.6975556,22.9652621 Z" id="Shape" transform="translate(24.425963, 22.454361) scale(-1, 1) translate(-24.425963, -22.454361) "></path>
                    <path d="M12.1331274,17.6115083 C14.4460064,16.7495406 15.9918864,15.1866514 15.9918864,13.4013963 L14.8462647,1.87710664 C14.8024615,1.43783045 14.2106751,1.09533469 13.4952822,1.09533469 C12.7215442,1.09533469 12.1051075,1.49413112 12.1435905,1.96930445 L12.8885993,11.2118893 C12.8885993,11.7314703 12.2038863,12.1525252 11.359744,12.1525252 C10.5154243,12.1525252 9.83088874,11.7312521 9.83088874,11.2118893 L9.45865035,1.97312329 C9.43896551,1.48485679 8.79007543,1.0954438 7.99612055,1.0954438 C7.20216566,1.0954438 6.55345292,1.4849659 6.53359075,1.97312329 L6.16135235,11.2118893 C6.16135235,11.7314703 5.47663942,12.1525252 4.63249708,12.1525252 C3.7881774,12.1525252 3.10364181,11.7312521 3.10364181,11.2118893 L3.84865063,1.96930445 C3.88695624,1.49391291 3.27016485,1.09533469 2.49695884,1.09533469 C1.78156595,1.09533469 1.18977961,1.43783045 1.14615376,1.87710664 L0,13.4015054 C0,15.1867605 1.54570265,16.7495406 3.85875905,17.6116174 C5.36402799,18.1725511 6.20320479,19.2213148 6.00919392,20.2975742 C4.70343341,27.5378845 3.81672928,39.3582982 3.81672928,40.6459034 C3.81672928,42.5162641 5.68785234,44.0324544 7.9959432,44.0324544 C10.3040341,44.0324544 12.1751571,42.516155 12.1751571,40.6459034 C12.1751571,39.3582982 11.2882757,27.5378845 9.98269249,20.2975742 C9.78850428,19.2218603 10.6285678,18.1722237 12.1331274,17.6115083 Z" id="Shape"></path>
                </g>
                <g id="maps-and-flags" transform="translate(19.496957, 0.000000)">
                    <path d="M30.5302649,0 C13.6957859,0 0,12.8838246 0,28.7201085 C0,48.3734317 27.3215962,77.2256589 28.4848374,78.4443112 C29.5774444,79.5890823 31.4850612,79.5870687 32.5756924,78.4443112 C33.7389335,77.2256589 61.0605298,48.3734317 61.0605298,28.7201085 C61.0602005,12.8838246 47.3645792,0 30.5302649,0 Z M30.6247099,52.3518636 C20.1839716,52.3518636 11.6900387,43.2496746 11.6900387,32.0615355 C11.6900387,20.8733965 20.1841746,11.7714249 30.6247099,11.7714249 C41.0652453,11.7714249 49.5591782,20.873614 49.5591782,32.061753 C49.5591782,43.2498921 41.0652453,52.3518636 30.6247099,52.3518636 Z" id="Shape"></path>
                </g>
            </g>
        </g>
    </g>
</svg>